HIERARCHY
ROOT Hips
{
    OFFSET 0.000000 0.000000 0.000000
    CHANNELS 6 Xposition Yposition Zposition Zrotation Xrotation Yrotation
        JOINT Chest
        {
            OFFSET -0.000000 30.832245 -0.000000
            CHANNELS 3 Zrotation Xrotation Yrotation
            JOINT Neck
            {
                OFFSET -0.000000 22.747684 0.000000
                CHANNELS 3 Zrotation Xrotation Yrotation
                JOINT Head
                {
                    OFFSET -0.000000 10.755556 0.000000
                    CHANNELS 3 Zrotation Xrotation Yrotation
                    End Site
                    {
                        OFFSET -0.000000 16.622223 0.000000
                    }
                }
            }
            JOINT LeftCollar
            {
                OFFSET -0.000000 22.747684 0.000000
                CHANNELS 3 Zrotation Xrotation Yrotation
                JOINT LeftShoulder
                {
                    OFFSET 19.555553 -0.000000 0.000000
                    CHANNELS 3 Zrotation Xrotation Yrotation
                    JOINT LeftElbow
                    {
                        OFFSET 22.529686 0.000000 0.000000
                        CHANNELS 3 Zrotation Xrotation Yrotation
                        JOINT LeftWrist
                        {
                            OFFSET 26.249420 0.000000 0.000000
                            CHANNELS 3 Zrotation Xrotation Yrotation
                            End Site
                            {
                                OFFSET 0.000000 -14.666668 0.000000
                            }
                        }
                    }
                }
            }
            JOINT RightCollar
            {
                OFFSET -0.000000 22.747684 0.000000
                CHANNELS 3 Zrotation Xrotation Yrotation
                JOINT RightShoulder
                {
                    OFFSET -19.555553 0.000000 0.000000
                    CHANNELS 3 Zrotation Xrotation Yrotation
                    JOINT RightElbow
                    {
                        OFFSET -22.529686 0.000000 0.000000
                        CHANNELS 3 Zrotation Xrotation Yrotation
                        JOINT RightWrist
                        {
                            OFFSET -26.249420 0.000000 0.000000
                            CHANNELS 3 Zrotation Xrotation Yrotation
                            End Site
                            {
                                OFFSET -0.000000 -14.666668 0.000000
                            }
                        }
                    }
                }
            }
        }
    JOINT LeftHip
    {
        OFFSET 11.733333 0.000000 0.000000
        CHANNELS 3 Zrotation Xrotation Yrotation
        JOINT LeftKnee
        {
            OFFSET -0.000000 -34.781296 0.000000
            CHANNELS 3 Zrotation Xrotation Yrotation
            JOINT LeftAnkle
            {
                OFFSET -0.000000 -42.425819 0.000000
                CHANNELS 3 Zrotation Xrotation Yrotation
                End Site
                {
                    OFFSET -0.000000 -4.888888 16.622223
                }
            }
        }
    }
    JOINT RightHip
    {
        OFFSET -11.733333 0.000000 0.000000
        CHANNELS 3 Zrotation Xrotation Yrotation
        JOINT RightKnee
        {
            OFFSET -0.000000 -34.781296 0.000000
            CHANNELS 3 Zrotation Xrotation Yrotation
            JOINT RightAnkle
            {
                OFFSET -0.000000 -42.425819 0.000000
                CHANNELS 3 Zrotation Xrotation Yrotation
                End Site
                {
                    OFFSET -0.000000 -4.888888 16.622223
                }
            }
        }
    }
}
MOTION
Frames:    8
Frame Time:    0.010000
91.639107    84.329742    -34.774773    1.079933    2.805660    -58.347279    -4.424682    9.843869    -3.559018    1.181782    4.914012    9.969302    2.346011    -13.959881    10.309445    -10.559221    -0.261256    3.006879    -29.902348    55.926071    -45.223385    15.228643    -6.065882    -43.338905    129.720810    0.213555    54.788826    12.467851    0.711967    6.467209    51.295292    37.596626    14.745266    8.941419    3.723559    45.723385    -101.277664    -6.324407    7.708869    9.876601    -10.912094    2.050945    -8.245888    24.002905    9.255371    -6.924775    -11.255991    24.116138    -13.069547    -10.949962    0.876328    3.455508    21.549726    -6.210148    12.093704    -8.053862    -11.645664    
91.469864    84.267578    -35.350037    1.150218    2.868401    -58.830921    -4.558984    9.966367    -3.470737    1.280570    4.824092    10.130707    2.230039    -14.145802    10.463514    -10.704565    -0.229019    2.806019    -29.540730    55.435665    -45.565903    14.906785    -5.806979    -42.380527    129.495407    0.138052    54.182961    12.495860    0.754993    6.584790    51.569134    37.798096    15.030344    8.637604    3.525025    45.116737    -100.790573    -6.157744    6.868413    10.422894    -11.231513    2.038033    -8.503427    24.403576    9.820484    -6.999370    -11.230986    24.156227    -12.577250    -10.636181    1.069441    3.333837    20.551340    -5.779139    12.342796    -8.778323    -11.247546    
91.279701    84.223663    -35.942806    1.170008    2.979454    -59.323154    -4.635870    10.110955    -3.364829    1.418285    4.708434    10.286846    2.090378    -14.290149    10.609296    -10.804940    -0.253570    2.608750    -29.264835    55.001392    -45.869034    14.721046    -5.595106    -41.422707    129.189056    0.064458    53.519917    12.499529    0.735504    6.678257    51.856079    38.079777    15.335048    8.217926    3.263723    44.567196    -100.187592    -6.021814    5.954477    11.037655    -11.533359    2.016463    -8.734330    24.835594    10.380619    -6.998883    -11.172028    24.217299    -11.955689    -10.426553    1.317783    3.279719    19.683765    -5.630367    12.233129    -9.271441    -10.825744    
91.071083    84.197357    -36.550037    1.141355    3.136928    -59.827057    -4.651422    10.273578    -3.241270    1.586392    4.564441    10.437794    1.937999    -14.383276    10.748060    -10.862230    -0.216482    2.417522    -29.010794    54.527935    -46.202400    14.344668    -5.315287    -40.487869    129.112946    0.030872    52.795666    12.465476    0.759669    6.738802    52.111736    38.358452    15.739195    7.881242    3.082616    43.879375    -99.598938    -6.010393    4.973393    11.714869    -11.822194    1.986663    -8.939980    25.308645    10.948603    -6.957357    -11.083153    24.289162    -11.215466    -10.340302    1.593559    3.254930    19.002966    -5.696779    11.811900    -9.557465    -10.390958    
90.847115    84.186554    -37.167042    1.068224    3.334223    -60.343319    -4.605643    10.451401    -3.102058    1.771771    4.390033    10.588050    1.784928    -14.418757    10.883718    -10.873499    -0.182648    2.240316    -28.766348    54.103226    -46.589565    14.116627    -5.079802    -39.564991    128.942047    -0.019253    52.127434    12.404228    0.712576    6.766841    52.339756    38.739944    16.171772    7.403036    2.813149    43.312183    -98.866470    -6.012067    3.932282    12.443405    -12.103742    1.945966    -9.124707    25.833382    11.536322    -6.912190    -10.969029    24.363331    -10.377738    -10.385537    1.868267    3.228772    18.552820    -5.872756    11.152691    -9.693393    -9.968547    
90.611099    84.187660    -37.787525    0.955858    3.559877    -60.869221    -4.503689    10.642990    -2.951217    1.965115    4.187154    10.737332    1.638325    -14.396619    11.018052    -10.840564    -0.209403    2.076109    -28.546375    53.792267    -47.001293    13.980353    -4.943907    -38.672825    128.816071    -0.061388    51.518791    12.297751    0.728123    6.758713    52.504673    39.101151    16.715216    7.073129    2.654380    42.598164    -98.222023    -6.142370    2.869116    13.207301    -12.384041    1.887498    -9.296077    26.420431    12.150596    -6.899950    -10.833798    24.435772    -9.473877    -10.555264    2.119783    3.183170    18.356445    -6.036087    10.349571    -9.754008    -9.599851    
90.365982    84.195801    -38.404011    0.810264    3.798384    -61.398315    -4.355427    10.848149    -2.793903    2.156824    3.959265    10.887893    1.502447    -14.319864    11.152877    -10.775827    -0.179148    1.925082    -28.281958    53.488083    -47.499001    13.714931    -4.699781    -37.827255    128.793457    -0.093440    51.050869    12.152376    0.745455    6.714447    52.587196    39.508003    17.339378    6.685781    2.458335    41.979000    -97.546692    -6.277727    1.797394    13.986910    -12.668778    1.801007    -9.464078    27.079401    12.790035    -6.951512    -10.678927    24.505796    -8.542888    -10.826324    2.337041    3.114155    18.410299    -6.073550    9.505573    -9.814297    -9.336945    
90.113945    84.205223    -39.008640    0.637242    4.031598    -61.920975    -4.175019    11.065641    -2.635737    2.340917    3.716190    11.038182    1.378028    -14.195896    11.287396    -10.690755    -0.142114    1.781284    -27.939114    53.252018    -48.105721    13.545178    -4.545346    -37.041245    128.756332    -0.119440    50.729244    11.980214    0.690816    6.632121    52.627193    40.003860    17.955351    6.220356    2.223264    41.494492    -96.900223    -6.380374    0.711251    14.760912    -12.962042    1.672404    -9.640949    27.816858    13.447200    -7.086359    -10.501534    24.573584    -7.627288    -11.161595    2.519131    3.029850    18.683098    -5.910498    8.715407    -9.932418    -9.222330    
